<?xml version="1.0" encoding="utf-8"?>
<!-- Generator: Adobe Illustrator 26.5.0, SVG Export Plug-In . SVG Version: 6.00 Build 0)  -->
<svg version="1.1" id="Layer_1" xmlns="http://www.w3.org/2000/svg" xmlns:xlink="http://www.w3.org/1999/xlink" x="0px" y="0px"
	 viewBox="0 0 97.8 67.4" style="enable-background:new 0 0 97.8 67.4;" xml:space="preserve">
<style type="text/css">
	.st0{fill:#604C36;}
</style>
<path class="st0" d="M25.5,2.5c6,3,4.5,8.2,5,9c2.8,4.6,30-15.6,37-7c2.4,2.9-0.7,6.2,2,10c5.7,7.9,24.2,1.2,26,6
	c0.8,2.2-3,3.9-6,10c-4,8-0.9,12.4-3,19c-3.4,10.5-17.5,19.7-27,17c-10.8-3.1-11-20.5-20-21c-5-0.3-6.1,5.1-16,9
	c-4.9,2-15.8,5.1-19,1c-3.3-4.2-1.3-12.1,7-16c7.1-3.4,3-8-1-9c-1.9-0.5-6.5,1.5-9-8c-1.6-6,6.6-12.8,8-14C17.1,2.2,23,2.4,25.5,2.5
	z"/>
</svg>
